<svg width="109" height="130" viewBox="0 0 109 130" fill="none" xmlns="http://www.w3.org/2000/svg">
<path d="M64.2955 24.1392C63.5795 24.1392 62.968 23.9337 62.4609 23.5227C61.9571 23.1084 61.5694 22.5102 61.2976 21.728C61.0291 20.9458 60.8949 20.0062 60.8949 18.9091C60.8949 17.8153 61.0291 16.879 61.2976 16.1001C61.5694 15.3179 61.9588 14.7197 62.4659 14.3054C62.9763 13.8878 63.5862 13.679 64.2955 13.679C65.0047 13.679 65.6129 13.8878 66.12 14.3054C66.6304 14.7197 67.0199 15.3179 67.2884 16.1001C67.5601 16.879 67.696 17.8153 67.696 18.9091C67.696 20.0062 67.5601 20.9458 67.2884 21.728C67.0199 22.5102 66.6321 23.1084 66.125 23.5227C65.6212 23.9337 65.0114 24.1392 64.2955 24.1392ZM64.2955 23.304C65.081 23.304 65.6941 22.9212 66.1349 22.1555C66.5758 21.3866 66.7962 20.3045 66.7962 18.9091C66.7962 17.9811 66.6951 17.1889 66.4929 16.5327C66.294 15.8731 66.0073 15.3693 65.6328 15.0213C65.2616 14.6733 64.8158 14.4993 64.2955 14.4993C63.5166 14.4993 62.9051 14.8871 62.4609 15.6626C62.0168 16.4349 61.7947 17.517 61.7947 18.9091C61.7947 19.8371 61.8942 20.6293 62.093 21.2855C62.2952 21.9418 62.5819 22.4422 62.9531 22.7869C63.3277 23.1316 63.7751 23.304 64.2955 23.304ZM73.8757 18.4915V19.3267H69.6399V18.4915H73.8757ZM75.6555 21.8125V21.0568L80.1946 13.8182H80.7514V15.0859H80.3388L76.6946 20.9126V20.9773H82.6456V21.8125H75.6555ZM80.4084 24V21.5739V21.2259V13.8182H81.2933V24H80.4084ZM87.8248 24.1392C87.1088 24.1392 86.4973 23.9337 85.9902 23.5227C85.4864 23.1084 85.0987 22.5102 84.8269 21.728C84.5584 20.9458 84.4242 20.0062 84.4242 18.9091C84.4242 17.8153 84.5584 16.879 84.8269 16.1001C85.0987 15.3179 85.4881 14.7197 85.9952 14.3054C86.5056 13.8878 87.1155 13.679 87.8248 13.679C88.534 13.679 89.1422 13.8878 89.6493 14.3054C90.1597 14.7197 90.5492 15.3179 90.8176 16.1001C91.0894 16.879 91.2253 17.8153 91.2253 18.9091C91.2253 20.0062 91.0894 20.9458 90.8176 21.728C90.5492 22.5102 90.1614 23.1084 89.6543 23.5227C89.1505 23.9337 88.5407 24.1392 87.8248 24.1392ZM87.8248 23.304C88.6103 23.304 89.2234 22.9212 89.6642 22.1555C90.1051 21.3866 90.3255 20.3045 90.3255 18.9091C90.3255 17.9811 90.2244 17.1889 90.0222 16.5327C89.8233 15.8731 89.5366 15.3693 89.1621 15.0213C88.7909 14.6733 88.3451 14.4993 87.8248 14.4993C87.0459 14.4993 86.4344 14.8871 85.9902 15.6626C85.5461 16.4349 85.324 17.517 85.324 18.9091C85.324 19.8371 85.4235 20.6293 85.6223 21.2855C85.8245 21.9418 86.1112 22.4422 86.4824 22.7869C86.8569 23.1316 87.3044 23.304 87.8248 23.304Z" fill="black"/>
<circle cx="20" cy="20" r="20" fill="#D6E2ED"/>
<path d="M56.8899 69.8125V69.0568L61.429 61.8182H61.9858V63.0859H61.5732L57.929 68.9126V68.9773H63.88V69.8125H56.8899ZM61.6428 72V69.5739V69.2259V61.8182H62.5277V72H61.6428ZM68.9025 61.8182V72H67.9728V62.7926H67.9132L65.5268 64.3786V63.4141L67.9331 61.8182H68.9025ZM76.1511 66.4915V67.3267H71.9153V66.4915H76.1511ZM81.3166 72.1392C80.7498 72.1392 80.2427 72.0249 79.7953 71.7962C79.3511 71.5642 78.9965 71.246 78.7314 70.8416C78.4695 70.4373 78.3303 69.9749 78.3137 69.4545H79.2136C79.2434 69.9948 79.4556 70.4389 79.85 70.7869C80.2444 71.1316 80.7333 71.304 81.3166 71.304C81.7707 71.304 82.175 71.1963 82.5297 70.9808C82.8843 70.7621 83.161 70.4638 83.3599 70.0859C83.5621 69.7048 83.6632 69.2756 83.6632 68.7983C83.6599 68.3011 83.5521 67.8636 83.34 67.4858C83.1279 67.1046 82.8395 66.8063 82.475 66.5909C82.1137 66.3755 81.7077 66.2678 81.2569 66.2678C80.9155 66.2644 80.5808 66.3208 80.2527 66.4368C79.9245 66.5528 79.6511 66.7019 79.4324 66.8842L78.5027 66.7649L79.1142 61.8182H84.1454V62.6534H79.8947L79.487 66.0589H79.5368C79.7621 65.87 80.0356 65.7159 80.3571 65.5966C80.6819 65.4773 81.0249 65.4176 81.3862 65.4176C81.9861 65.4176 82.5247 65.5618 83.002 65.8501C83.4825 66.1385 83.862 66.5362 84.1404 67.0433C84.4222 67.5471 84.563 68.1271 84.563 68.7834C84.563 69.4264 84.4222 70.0014 84.1404 70.5085C83.862 71.0123 83.4776 71.41 82.987 71.7017C82.4998 71.9934 81.943 72.1392 81.3166 72.1392ZM89.8404 72.1392C89.1245 72.1392 88.513 71.9337 88.0059 71.5227C87.5021 71.1084 87.1143 70.5102 86.8425 69.728C86.574 68.9458 86.4398 68.0062 86.4398 66.9091C86.4398 65.8153 86.574 64.879 86.8425 64.1001C87.1143 63.3179 87.5037 62.7197 88.0108 62.3054C88.5212 61.8878 89.1311 61.679 89.8404 61.679C90.5497 61.679 91.1578 61.8878 91.665 62.3054C92.1754 62.7197 92.5648 63.3179 92.8333 64.1001C93.1051 64.879 93.2409 65.8153 93.2409 66.9091C93.2409 68.0062 93.1051 68.9458 92.8333 69.728C92.5648 70.5102 92.177 71.1084 91.6699 71.5227C91.1661 71.9337 90.5563 72.1392 89.8404 72.1392ZM89.8404 71.304C90.6259 71.304 91.2391 70.9212 91.6799 70.1555C92.1207 69.3866 92.3411 68.3045 92.3411 66.9091C92.3411 65.9811 92.24 65.1889 92.0378 64.5327C91.839 63.8731 91.5523 63.3693 91.1777 63.0213C90.8065 62.6733 90.3607 62.4993 89.8404 62.4993C89.0615 62.4993 88.45 62.8871 88.0059 63.6626C87.5617 64.4349 87.3397 65.517 87.3397 66.9091C87.3397 67.8371 87.4391 68.6293 87.638 69.2855C87.8401 69.9418 88.1268 70.4422 88.498 70.7869C88.8726 71.1316 89.32 71.304 89.8404 71.304Z" fill="black"/>
<path d="M60.1115 118.139C59.5447 118.139 59.0376 118.025 58.5902 117.796C58.1461 117.564 57.7914 117.246 57.5263 116.842C57.2644 116.437 57.1252 115.975 57.1087 115.455H58.0085C58.0384 115.995 58.2505 116.439 58.6449 116.787C59.0393 117.132 59.5282 117.304 60.1115 117.304C60.5656 117.304 60.9699 117.196 61.3246 116.981C61.6792 116.762 61.956 116.464 62.1548 116.086C62.357 115.705 62.4581 115.276 62.4581 114.798C62.4548 114.301 62.3471 113.864 62.1349 113.486C61.9228 113.105 61.6345 112.806 61.2699 112.591C60.9086 112.375 60.5026 112.268 60.0518 112.268C59.7105 112.264 59.3757 112.321 59.0476 112.437C58.7195 112.553 58.446 112.702 58.2273 112.884L57.2976 112.765L57.9091 107.818H62.9403V108.653H58.6896L58.282 112.059H58.3317C58.5571 111.87 58.8305 111.716 59.152 111.597C59.4768 111.477 59.8198 111.418 60.1811 111.418C60.781 111.418 61.3196 111.562 61.7969 111.85C62.2775 112.138 62.657 112.536 62.9354 113.043C63.2171 113.547 63.358 114.127 63.358 114.783C63.358 115.426 63.2171 116.001 62.9354 116.509C62.657 117.012 62.2725 117.41 61.782 117.702C61.2947 117.993 60.7379 118.139 60.1115 118.139ZM68.6154 107.818V118H67.6857V108.793H67.6261L65.2397 110.379V109.414L67.646 107.818H68.6154ZM75.864 112.491V113.327H71.6282V112.491H75.864ZM81.2582 118.139C80.8372 118.136 80.4263 118.051 80.0252 117.886C79.6242 117.717 79.2629 117.446 78.9414 117.075C78.6199 116.701 78.3647 116.207 78.1758 115.594C77.9869 114.981 77.8924 114.227 77.8924 113.332C77.8924 112.503 77.9653 111.744 78.1112 111.055C78.257 110.365 78.4757 109.769 78.7674 109.265C79.0591 108.761 79.4237 108.372 79.8612 108.097C80.2987 107.818 80.8107 107.679 81.3974 107.679C81.9476 107.679 82.4331 107.793 82.854 108.022C83.275 108.247 83.6164 108.562 83.8782 108.967C84.14 109.371 84.3041 109.837 84.3704 110.364H83.4556C83.3628 109.827 83.1424 109.384 82.7944 109.036C82.4464 108.688 81.9807 108.514 81.3974 108.514C80.5621 108.514 79.9158 108.902 79.4585 109.678C79.0011 110.45 78.7707 111.547 78.7674 112.969H78.832C78.9944 112.667 79.2032 112.407 79.4585 112.188C79.717 111.966 80.0103 111.794 80.3384 111.671C80.6665 111.545 81.0112 111.482 81.3725 111.482C81.9393 111.482 82.458 111.626 82.9286 111.915C83.3993 112.2 83.7754 112.593 84.0572 113.093C84.3389 113.59 84.4798 114.159 84.4798 114.798C84.4798 115.405 84.3455 115.963 84.0771 116.474C83.8119 116.984 83.4374 117.39 82.9535 117.692C82.4729 117.993 81.9078 118.143 81.2582 118.139ZM81.2582 117.304C81.7023 117.304 82.0984 117.191 82.4464 116.966C82.7977 116.741 83.0745 116.439 83.2766 116.061C83.4788 115.68 83.5799 115.259 83.5799 114.798C83.5799 114.338 83.4788 113.92 83.2766 113.545C83.0745 113.171 82.7977 112.873 82.4464 112.651C82.0984 112.429 81.7023 112.317 81.2582 112.317C80.9201 112.317 80.6052 112.387 80.3136 112.526C80.0219 112.662 79.7683 112.849 79.5529 113.088C79.3408 113.323 79.1784 113.594 79.0657 113.898C78.9563 114.203 78.9149 114.523 78.9414 114.858C78.9779 115.325 79.0988 115.745 79.3043 116.116C79.5131 116.484 79.7849 116.774 80.1197 116.986C80.4577 117.198 80.8372 117.304 81.2582 117.304ZM89.7447 118.139C89.0288 118.139 88.4173 117.934 87.9102 117.523C87.4064 117.108 87.0186 116.51 86.7468 115.728C86.4783 114.946 86.3441 114.006 86.3441 112.909C86.3441 111.815 86.4783 110.879 86.7468 110.1C87.0186 109.318 87.408 108.72 87.9151 108.305C88.4255 107.888 89.0354 107.679 89.7447 107.679C90.454 107.679 91.0621 107.888 91.5692 108.305C92.0797 108.72 92.4691 109.318 92.7376 110.1C93.0094 110.879 93.1452 111.815 93.1452 112.909C93.1452 114.006 93.0094 114.946 92.7376 115.728C92.4691 116.51 92.0813 117.108 91.5742 117.523C91.0704 117.934 90.4606 118.139 89.7447 118.139ZM89.7447 117.304C90.5302 117.304 91.1433 116.921 91.5842 116.156C92.025 115.387 92.2454 114.304 92.2454 112.909C92.2454 111.981 92.1443 111.189 91.9421 110.533C91.7433 109.873 91.4566 109.369 91.082 109.021C90.7108 108.673 90.265 108.499 89.7447 108.499C88.9658 108.499 88.3543 108.887 87.9102 109.663C87.466 110.435 87.244 111.517 87.244 112.909C87.244 113.837 87.3434 114.629 87.5423 115.286C87.7444 115.942 88.0311 116.442 88.4023 116.787C88.7769 117.132 89.2243 117.304 89.7447 117.304Z" fill="black"/>
<circle cx="20" cy="68" r="15" fill="#76A2BC"/>
<circle cx="20" cy="112" r="10" fill="#405368"/>
</svg>
