<svg width="240" height="122" viewBox="0 0 240 122" fill="none" xmlns="http://www.w3.org/2000/svg">
<path d="M64.2955 24.1392C63.5795 24.1392 62.968 23.9337 62.4609 23.5227C61.9571 23.1084 61.5694 22.5102 61.2976 21.728C61.0291 20.9458 60.8949 20.0062 60.8949 18.9091C60.8949 17.8153 61.0291 16.879 61.2976 16.1001C61.5694 15.3179 61.9588 14.7197 62.4659 14.3054C62.9763 13.8878 63.5862 13.679 64.2955 13.679C65.0047 13.679 65.6129 13.8878 66.12 14.3054C66.6304 14.7197 67.0199 15.3179 67.2884 16.1001C67.5601 16.879 67.696 17.8153 67.696 18.9091C67.696 20.0062 67.5601 20.9458 67.2884 21.728C67.0199 22.5102 66.6321 23.1084 66.125 23.5227C65.6212 23.9337 65.0114 24.1392 64.2955 24.1392ZM64.2955 23.304C65.081 23.304 65.6941 22.9212 66.1349 22.1555C66.5758 21.3866 66.7962 20.3045 66.7962 18.9091C66.7962 17.9811 66.6951 17.1889 66.4929 16.5327C66.294 15.8731 66.0073 15.3693 65.6328 15.0213C65.2616 14.6733 64.8158 14.4993 64.2955 14.4993C63.5166 14.4993 62.9051 14.8871 62.4609 15.6626C62.0168 16.4349 61.7947 17.517 61.7947 18.9091C61.7947 19.8371 61.8942 20.6293 62.093 21.2855C62.2952 21.9418 62.5819 22.4422 62.9531 22.7869C63.3277 23.1316 63.7751 23.304 64.2955 23.304ZM73.8757 18.4915V19.3267H69.6399V18.4915H73.8757ZM75.6555 21.8125V21.0568L80.1946 13.8182H80.7514V15.0859H80.3388L76.6946 20.9126V20.9773H82.6456V21.8125H75.6555ZM80.4084 24V21.5739V21.2259V13.8182H81.2933V24H80.4084ZM87.8248 24.1392C87.1088 24.1392 86.4973 23.9337 85.9902 23.5227C85.4864 23.1084 85.0987 22.5102 84.8269 21.728C84.5584 20.9458 84.4242 20.0062 84.4242 18.9091C84.4242 17.8153 84.5584 16.879 84.8269 16.1001C85.0987 15.3179 85.4881 14.7197 85.9952 14.3054C86.5056 13.8878 87.1155 13.679 87.8248 13.679C88.534 13.679 89.1422 13.8878 89.6493 14.3054C90.1597 14.7197 90.5492 15.3179 90.8176 16.1001C91.0894 16.879 91.2253 17.8153 91.2253 18.9091C91.2253 20.0062 91.0894 20.9458 90.8176 21.728C90.5492 22.5102 90.1614 23.1084 89.6543 23.5227C89.1505 23.9337 88.5407 24.1392 87.8248 24.1392ZM87.8248 23.304C88.6103 23.304 89.2234 22.9212 89.6642 22.1555C90.1051 21.3866 90.3255 20.3045 90.3255 18.9091C90.3255 17.9811 90.2244 17.1889 90.0222 16.5327C89.8233 15.8731 89.5366 15.3693 89.1621 15.0213C88.7909 14.6733 88.3451 14.4993 87.8248 14.4993C87.0459 14.4993 86.4344 14.8871 85.9902 15.6626C85.5461 16.4349 85.324 17.517 85.324 18.9091C85.324 19.8371 85.4235 20.6293 85.6223 21.2855C85.8245 21.9418 86.1112 22.4422 86.4824 22.7869C86.8569 23.1316 87.3044 23.304 87.8248 23.304Z" fill="black"/>
<circle cx="20" cy="20" r="20" fill="#D6E2ED"/>
<path d="M56.8899 69.8125V69.0568L61.429 61.8182H61.9858V63.0859H61.5732L57.929 68.9126V68.9773H63.88V69.8125H56.8899ZM61.6428 72V69.5739V69.2259V61.8182H62.5277V72H61.6428ZM68.9025 61.8182V72H67.9728V62.7926H67.9132L65.5268 64.3786V63.4141L67.9331 61.8182H68.9025ZM76.1511 66.4915V67.3267H71.9153V66.4915H76.1511ZM81.3166 72.1392C80.7498 72.1392 80.2427 72.0249 79.7953 71.7962C79.3511 71.5642 78.9965 71.246 78.7314 70.8416C78.4695 70.4373 78.3303 69.9749 78.3137 69.4545H79.2136C79.2434 69.9948 79.4556 70.4389 79.85 70.7869C80.2444 71.1316 80.7333 71.304 81.3166 71.304C81.7707 71.304 82.175 71.1963 82.5297 70.9808C82.8843 70.7621 83.161 70.4638 83.3599 70.0859C83.5621 69.7048 83.6632 69.2756 83.6632 68.7983C83.6599 68.3011 83.5521 67.8636 83.34 67.4858C83.1279 67.1046 82.8395 66.8063 82.475 66.5909C82.1137 66.3755 81.7077 66.2678 81.2569 66.2678C80.9155 66.2644 80.5808 66.3208 80.2527 66.4368C79.9245 66.5528 79.6511 66.7019 79.4324 66.8842L78.5027 66.7649L79.1142 61.8182H84.1454V62.6534H79.8947L79.487 66.0589H79.5368C79.7621 65.87 80.0356 65.7159 80.3571 65.5966C80.6819 65.4773 81.0249 65.4176 81.3862 65.4176C81.9861 65.4176 82.5247 65.5618 83.002 65.8501C83.4825 66.1385 83.862 66.5362 84.1404 67.0433C84.4222 67.5471 84.563 68.1271 84.563 68.7834C84.563 69.4264 84.4222 70.0014 84.1404 70.5085C83.862 71.0123 83.4776 71.41 82.987 71.7017C82.4998 71.9934 81.943 72.1392 81.3166 72.1392ZM89.8404 72.1392C89.1245 72.1392 88.513 71.9337 88.0059 71.5227C87.5021 71.1084 87.1143 70.5102 86.8425 69.728C86.574 68.9458 86.4398 68.0062 86.4398 66.9091C86.4398 65.8153 86.574 64.879 86.8425 64.1001C87.1143 63.3179 87.5037 62.7197 88.0108 62.3054C88.5212 61.8878 89.1311 61.679 89.8404 61.679C90.5497 61.679 91.1578 61.8878 91.665 62.3054C92.1754 62.7197 92.5648 63.3179 92.8333 64.1001C93.1051 64.879 93.2409 65.8153 93.2409 66.9091C93.2409 68.0062 93.1051 68.9458 92.8333 69.728C92.5648 70.5102 92.177 71.1084 91.6699 71.5227C91.1661 71.9337 90.5563 72.1392 89.8404 72.1392ZM89.8404 71.304C90.6259 71.304 91.2391 70.9212 91.6799 70.1555C92.1207 69.3866 92.3411 68.3045 92.3411 66.9091C92.3411 65.9811 92.24 65.1889 92.0378 64.5327C91.839 63.8731 91.5523 63.3693 91.1777 63.0213C90.8065 62.6733 90.3607 62.4993 89.8404 62.4993C89.0615 62.4993 88.45 62.8871 88.0059 63.6626C87.5617 64.4349 87.3397 65.517 87.3397 66.9091C87.3397 67.8371 87.4391 68.6293 87.638 69.2855C87.8401 69.9418 88.1268 70.4422 88.498 70.7869C88.8726 71.1316 89.32 71.304 89.8404 71.304Z" fill="black"/>
<path d="M60.1115 118.139C59.5447 118.139 59.0376 118.025 58.5902 117.796C58.1461 117.564 57.7914 117.246 57.5263 116.842C57.2644 116.437 57.1252 115.975 57.1087 115.455H58.0085C58.0384 115.995 58.2505 116.439 58.6449 116.787C59.0393 117.132 59.5282 117.304 60.1115 117.304C60.5656 117.304 60.9699 117.196 61.3246 116.981C61.6792 116.762 61.956 116.464 62.1548 116.086C62.357 115.705 62.4581 115.276 62.4581 114.798C62.4548 114.301 62.3471 113.864 62.1349 113.486C61.9228 113.105 61.6345 112.806 61.2699 112.591C60.9086 112.375 60.5026 112.268 60.0518 112.268C59.7105 112.264 59.3757 112.321 59.0476 112.437C58.7195 112.553 58.446 112.702 58.2273 112.884L57.2976 112.765L57.9091 107.818H62.9403V108.653H58.6896L58.282 112.059H58.3317C58.5571 111.87 58.8305 111.716 59.152 111.597C59.4768 111.477 59.8198 111.418 60.1811 111.418C60.781 111.418 61.3196 111.562 61.7969 111.85C62.2775 112.138 62.657 112.536 62.9354 113.043C63.2171 113.547 63.358 114.127 63.358 114.783C63.358 115.426 63.2171 116.001 62.9354 116.509C62.657 117.012 62.2725 117.41 61.782 117.702C61.2947 117.993 60.7379 118.139 60.1115 118.139ZM68.6154 107.818V118H67.6857V108.793H67.6261L65.2397 110.379V109.414L67.646 107.818H68.6154ZM75.864 112.491V113.327H71.6282V112.491H75.864ZM81.2582 118.139C80.8372 118.136 80.4263 118.051 80.0252 117.886C79.6242 117.717 79.2629 117.446 78.9414 117.075C78.6199 116.701 78.3647 116.207 78.1758 115.594C77.9869 114.981 77.8924 114.227 77.8924 113.332C77.8924 112.503 77.9653 111.744 78.1112 111.055C78.257 110.365 78.4757 109.769 78.7674 109.265C79.0591 108.761 79.4237 108.372 79.8612 108.097C80.2987 107.818 80.8107 107.679 81.3974 107.679C81.9476 107.679 82.4331 107.793 82.854 108.022C83.275 108.247 83.6164 108.562 83.8782 108.967C84.14 109.371 84.3041 109.837 84.3704 110.364H83.4556C83.3628 109.827 83.1424 109.384 82.7944 109.036C82.4464 108.688 81.9807 108.514 81.3974 108.514C80.5621 108.514 79.9158 108.902 79.4585 109.678C79.0011 110.45 78.7707 111.547 78.7674 112.969H78.832C78.9944 112.667 79.2032 112.407 79.4585 112.188C79.717 111.966 80.0103 111.794 80.3384 111.671C80.6665 111.545 81.0112 111.482 81.3725 111.482C81.9393 111.482 82.458 111.626 82.9286 111.915C83.3993 112.2 83.7754 112.593 84.0572 113.093C84.3389 113.59 84.4798 114.159 84.4798 114.798C84.4798 115.405 84.3455 115.963 84.0771 116.474C83.8119 116.984 83.4374 117.39 82.9535 117.692C82.4729 117.993 81.9078 118.143 81.2582 118.139ZM81.2582 117.304C81.7023 117.304 82.0984 117.191 82.4464 116.966C82.7977 116.741 83.0745 116.439 83.2766 116.061C83.4788 115.68 83.5799 115.259 83.5799 114.798C83.5799 114.338 83.4788 113.92 83.2766 113.545C83.0745 113.171 82.7977 112.873 82.4464 112.651C82.0984 112.429 81.7023 112.317 81.2582 112.317C80.9201 112.317 80.6052 112.387 80.3136 112.526C80.0219 112.662 79.7683 112.849 79.5529 113.088C79.3408 113.323 79.1784 113.594 79.0657 113.898C78.9563 114.203 78.9149 114.523 78.9414 114.858C78.9779 115.325 79.0988 115.745 79.3043 116.116C79.5131 116.484 79.7849 116.774 80.1197 116.986C80.4577 117.198 80.8372 117.304 81.2582 117.304ZM89.7447 118.139C89.0288 118.139 88.4173 117.934 87.9102 117.523C87.4064 117.108 87.0186 116.51 86.7468 115.728C86.4783 114.946 86.3441 114.006 86.3441 112.909C86.3441 111.815 86.4783 110.879 86.7468 110.1C87.0186 109.318 87.408 108.72 87.9151 108.305C88.4255 107.888 89.0354 107.679 89.7447 107.679C90.454 107.679 91.0621 107.888 91.5692 108.305C92.0797 108.72 92.4691 109.318 92.7376 110.1C93.0094 110.879 93.1452 111.815 93.1452 112.909C93.1452 114.006 93.0094 114.946 92.7376 115.728C92.4691 116.51 92.0813 117.108 91.5742 117.523C91.0704 117.934 90.4606 118.139 89.7447 118.139ZM89.7447 117.304C90.5302 117.304 91.1433 116.921 91.5842 116.156C92.025 115.387 92.2454 114.304 92.2454 112.909C92.2454 111.981 92.1443 111.189 91.9421 110.533C91.7433 109.873 91.4566 109.369 91.082 109.021C90.7108 108.673 90.265 108.499 89.7447 108.499C88.9658 108.499 88.3543 108.887 87.9102 109.663C87.466 110.435 87.244 111.517 87.244 112.909C87.244 113.837 87.3434 114.629 87.5423 115.286C87.7444 115.942 88.0311 116.442 88.4023 116.787C88.7769 117.132 89.2243 117.304 89.7447 117.304Z" fill="black"/>
<circle cx="20" cy="68" r="15" fill="#76A2BC"/>
<circle cx="20" cy="112" r="10" fill="#405368"/>
<path d="M183.134 24V23.3189L186.46 19.5803C186.894 19.0897 187.243 18.6705 187.509 18.3224C187.774 17.9744 187.966 17.6529 188.085 17.358C188.208 17.063 188.269 16.7564 188.269 16.4382C188.269 16.0504 188.178 15.7124 187.996 15.424C187.817 15.1323 187.57 14.9053 187.255 14.7429C186.94 14.5805 186.585 14.4993 186.191 14.4993C185.773 14.4993 185.407 14.5888 185.092 14.7678C184.781 14.9467 184.539 15.192 184.366 15.5036C184.194 15.8151 184.108 16.1731 184.108 16.5774H183.218C183.218 16.014 183.347 15.5152 183.606 15.081C183.868 14.6435 184.224 14.3004 184.675 14.0518C185.129 13.8033 185.643 13.679 186.216 13.679C186.783 13.679 187.286 13.8016 187.727 14.0469C188.168 14.2888 188.514 14.6186 188.766 15.0362C189.018 15.4538 189.144 15.9212 189.144 16.4382C189.144 16.8127 189.078 17.1757 188.945 17.527C188.816 17.8783 188.592 18.2694 188.274 18.7003C187.956 19.1312 187.515 19.6581 186.952 20.2812L184.426 23.1001V23.1648H189.462V24H183.134ZM194.84 24.1392C194.124 24.1392 193.513 23.9337 193.006 23.5227C192.502 23.1084 192.114 22.5102 191.843 21.728C191.574 20.9458 191.44 20.0062 191.44 18.9091C191.44 17.8153 191.574 16.879 191.843 16.1001C192.114 15.3179 192.504 14.7197 193.011 14.3054C193.521 13.8878 194.131 13.679 194.84 13.679C195.55 13.679 196.158 13.8878 196.665 14.3054C197.175 14.7197 197.565 15.3179 197.833 16.1001C198.105 16.879 198.241 17.8153 198.241 18.9091C198.241 20.0062 198.105 20.9458 197.833 21.728C197.565 22.5102 197.177 23.1084 196.67 23.5227C196.166 23.9337 195.556 24.1392 194.84 24.1392ZM194.84 23.304C195.626 23.304 196.239 22.9212 196.68 22.1555C197.121 21.3866 197.341 20.3045 197.341 18.9091C197.341 17.9811 197.24 17.1889 197.038 16.5327C196.839 15.8731 196.552 15.3693 196.178 15.0213C195.807 14.6733 195.361 14.4993 194.84 14.4993C194.061 14.4993 193.45 14.8871 193.006 15.6626C192.562 16.4349 192.34 17.517 192.34 18.9091C192.34 19.8371 192.439 20.6293 192.638 21.2855C192.84 21.9418 193.127 22.4422 193.498 22.7869C193.873 23.1316 194.32 23.304 194.84 23.304ZM203.426 24.1392C202.71 24.1392 202.099 23.9337 201.592 23.5227C201.088 23.1084 200.7 22.5102 200.428 21.728C200.16 20.9458 200.026 20.0062 200.026 18.9091C200.026 17.8153 200.16 16.879 200.428 16.1001C200.7 15.3179 201.09 14.7197 201.597 14.3054C202.107 13.8878 202.717 13.679 203.426 13.679C204.136 13.679 204.744 13.8878 205.251 14.3054C205.761 14.7197 206.151 15.3179 206.419 16.1001C206.691 16.879 206.827 17.8153 206.827 18.9091C206.827 20.0062 206.691 20.9458 206.419 21.728C206.151 22.5102 205.763 23.1084 205.256 23.5227C204.752 23.9337 204.142 24.1392 203.426 24.1392ZM203.426 23.304C204.212 23.304 204.825 22.9212 205.266 22.1555C205.707 21.3866 205.927 20.3045 205.927 18.9091C205.927 17.9811 205.826 17.1889 205.624 16.5327C205.425 15.8731 205.138 15.3693 204.764 15.0213C204.392 14.6733 203.947 14.4993 203.426 14.4993C202.647 14.4993 202.036 14.8871 201.592 15.6626C201.148 16.4349 200.926 17.517 200.926 18.9091C200.926 19.8371 201.025 20.6293 201.224 21.2855C201.426 21.9418 201.713 22.4422 202.084 22.7869C202.459 23.1316 202.906 23.304 203.426 23.304ZM213.007 18.4915V19.3267H208.771V18.4915H213.007ZM218.336 24.1392C217.71 24.1392 217.15 24.0265 216.656 23.8011C216.162 23.5724 215.771 23.2559 215.482 22.8516C215.194 22.4472 215.042 21.9815 215.025 21.4545H215.965C215.981 21.8258 216.096 22.1506 216.308 22.429C216.52 22.7041 216.802 22.9195 217.153 23.0753C217.504 23.2277 217.895 23.304 218.326 23.304C218.797 23.304 219.211 23.2161 219.569 23.0405C219.93 22.8648 220.212 22.6245 220.414 22.3196C220.62 22.0114 220.722 21.6634 220.722 21.2756C220.722 20.8646 220.618 20.5017 220.409 20.1868C220.2 19.8719 219.901 19.6267 219.509 19.451C219.122 19.2753 218.658 19.1875 218.117 19.1875H217.521V18.3523H218.117C218.558 18.3523 218.948 18.2727 219.286 18.1136C219.627 17.9512 219.896 17.7242 220.091 17.4325C220.287 17.1409 220.384 16.7978 220.384 16.4034C220.384 16.0289 220.3 15.6991 220.131 15.4141C219.962 15.129 219.723 14.9053 219.415 14.7429C219.11 14.5805 218.754 14.4993 218.346 14.4993C217.952 14.4993 217.59 14.5755 217.262 14.728C216.934 14.8804 216.669 15.0959 216.467 15.3743C216.268 15.6527 216.162 15.9825 216.149 16.3636H215.249C215.262 15.8333 215.408 15.3677 215.686 14.9666C215.968 14.5623 216.341 14.2474 216.805 14.022C217.272 13.7933 217.789 13.679 218.356 13.679C218.956 13.679 219.475 13.8016 219.912 14.0469C220.35 14.2921 220.688 14.6186 220.926 15.0263C221.168 15.4306 221.289 15.8764 221.289 16.3636C221.289 16.9437 221.132 17.4408 220.817 17.8551C220.502 18.2661 220.078 18.5511 219.544 18.7102V18.7749C220.194 18.9041 220.704 19.1925 221.075 19.6399C221.45 20.084 221.637 20.6293 221.637 21.2756C221.637 21.8191 221.495 22.308 221.21 22.7422C220.925 23.1731 220.534 23.5144 220.036 23.7663C219.543 24.0149 218.976 24.1392 218.336 24.1392ZM226.997 24.1392C226.281 24.1392 225.669 23.9337 225.162 23.5227C224.658 23.1084 224.271 22.5102 223.999 21.728C223.73 20.9458 223.596 20.0062 223.596 18.9091C223.596 17.8153 223.73 16.879 223.999 16.1001C224.271 15.3179 224.66 14.7197 225.167 14.3054C225.677 13.8878 226.287 13.679 226.997 13.679C227.706 13.679 228.314 13.8878 228.821 14.3054C229.332 14.7197 229.721 15.3179 229.99 16.1001C230.261 16.879 230.397 17.8153 230.397 18.9091C230.397 20.0062 230.261 20.9458 229.99 21.728C229.721 22.5102 229.333 23.1084 228.826 23.5227C228.322 23.9337 227.713 24.1392 226.997 24.1392ZM226.997 23.304C227.782 23.304 228.395 22.9212 228.836 22.1555C229.277 21.3866 229.497 20.3045 229.497 18.9091C229.497 17.9811 229.396 17.1889 229.194 16.5327C228.995 15.8731 228.709 15.3693 228.334 15.0213C227.963 14.6733 227.517 14.4993 226.997 14.4993C226.218 14.4993 225.606 14.8871 225.162 15.6626C224.718 16.4349 224.496 17.517 224.496 18.9091C224.496 19.8371 224.595 20.6293 224.794 21.2855C224.996 21.9418 225.283 22.4422 225.654 22.7869C226.029 23.1316 226.476 23.304 226.997 23.304ZM235.583 24.1392C234.867 24.1392 234.255 23.9337 233.748 23.5227C233.244 23.1084 232.856 22.5102 232.585 21.728C232.316 20.9458 232.182 20.0062 232.182 18.9091C232.182 17.8153 232.316 16.879 232.585 16.1001C232.856 15.3179 233.246 14.7197 233.753 14.3054C234.263 13.8878 234.873 13.679 235.583 13.679C236.292 13.679 236.9 13.8878 237.407 14.3054C237.918 14.7197 238.307 15.3179 238.575 16.1001C238.847 16.879 238.983 17.8153 238.983 18.9091C238.983 20.0062 238.847 20.9458 238.575 21.728C238.307 22.5102 237.919 23.1084 237.412 23.5227C236.908 23.9337 236.298 24.1392 235.583 24.1392ZM235.583 23.304C236.368 23.304 236.981 22.9212 237.422 22.1555C237.863 21.3866 238.083 20.3045 238.083 18.9091C238.083 17.9811 237.982 17.1889 237.78 16.5327C237.581 15.8731 237.294 15.3693 236.92 15.0213C236.549 14.6733 236.103 14.4993 235.583 14.4993C234.804 14.4993 234.192 14.8871 233.748 15.6626C233.304 16.4349 233.082 17.517 233.082 18.9091C233.082 19.8371 233.181 20.6293 233.38 21.2855C233.582 21.9418 233.869 22.4422 234.24 22.7869C234.615 23.1316 235.062 23.304 235.583 23.304Z" fill="black"/>
<circle cx="146" cy="20" r="20" fill="#FF8478"/>
<path d="M186.44 72.1392C185.813 72.1392 185.253 72.0265 184.759 71.8011C184.265 71.5724 183.874 71.2559 183.586 70.8516C183.298 70.4472 183.145 69.9815 183.129 69.4545H184.068C184.085 69.8258 184.199 70.1506 184.411 70.429C184.623 70.7041 184.905 70.9195 185.256 71.0753C185.608 71.2277 185.999 71.304 186.43 71.304C186.9 71.304 187.315 71.2161 187.673 71.0405C188.034 70.8648 188.316 70.6245 188.518 70.3196C188.723 70.0114 188.826 69.6634 188.826 69.2756C188.826 68.8646 188.722 68.5017 188.513 68.1868C188.304 67.8719 188.004 67.6267 187.613 67.451C187.225 67.2753 186.761 67.1875 186.221 67.1875H185.624V66.3523H186.221C186.662 66.3523 187.051 66.2727 187.389 66.1136C187.731 65.9512 187.999 65.7242 188.195 65.4325C188.39 65.1409 188.488 64.7978 188.488 64.4034C188.488 64.0289 188.403 63.6991 188.234 63.4141C188.065 63.129 187.827 62.9053 187.518 62.7429C187.214 62.5805 186.857 62.4993 186.45 62.4993C186.055 62.4993 185.694 62.5755 185.366 62.728C185.038 62.8804 184.772 63.0959 184.57 63.3743C184.371 63.6527 184.265 63.9825 184.252 64.3636H183.352C183.366 63.8333 183.511 63.3677 183.79 62.9666C184.071 62.5623 184.444 62.2474 184.908 62.022C185.376 61.7933 185.893 61.679 186.46 61.679C187.059 61.679 187.578 61.8016 188.016 62.0469C188.453 62.2921 188.791 62.6186 189.03 63.0263C189.272 63.4306 189.393 63.8764 189.393 64.3636C189.393 64.9437 189.235 65.4408 188.92 65.8551C188.606 66.2661 188.181 66.5511 187.648 66.7102V66.7749C188.297 66.9041 188.808 67.1925 189.179 67.6399C189.554 68.084 189.741 68.6293 189.741 69.2756C189.741 69.8191 189.598 70.308 189.313 70.7422C189.028 71.1731 188.637 71.5144 188.14 71.7663C187.646 72.0149 187.079 72.1392 186.44 72.1392ZM195.1 72.1392C194.384 72.1392 193.773 71.9337 193.266 71.5227C192.762 71.1084 192.374 70.5102 192.102 69.728C191.834 68.9458 191.7 68.0062 191.7 66.9091C191.7 65.8153 191.834 64.879 192.102 64.1001C192.374 63.3179 192.763 62.7197 193.271 62.3054C193.781 61.8878 194.391 61.679 195.1 61.679C195.809 61.679 196.418 61.8878 196.925 62.3054C197.435 62.7197 197.825 63.3179 198.093 64.1001C198.365 64.879 198.501 65.8153 198.501 66.9091C198.501 68.0062 198.365 68.9458 198.093 69.728C197.825 70.5102 197.437 71.1084 196.93 71.5227C196.426 71.9337 195.816 72.1392 195.1 72.1392ZM195.1 71.304C195.886 71.304 196.499 70.9212 196.94 70.1555C197.38 69.3866 197.601 68.3045 197.601 66.9091C197.601 65.9811 197.5 65.1889 197.298 64.5327C197.099 63.8731 196.812 63.3693 196.438 63.0213C196.066 62.6733 195.621 62.4993 195.1 62.4993C194.321 62.4993 193.71 62.8871 193.266 63.6626C192.821 64.4349 192.599 65.517 192.599 66.9091C192.599 67.8371 192.699 68.6293 192.898 69.2855C193.1 69.9418 193.387 70.4422 193.758 70.7869C194.132 71.1316 194.58 71.304 195.1 71.304ZM203.666 61.8182V72H202.737V62.7926H202.677L200.29 64.3786V63.4141L202.697 61.8182H203.666ZM210.915 66.4915V67.3267H206.679V66.4915H210.915ZM212.695 69.8125V69.0568L217.234 61.8182H217.79V63.0859H217.378L213.734 68.9126V68.9773H219.685V69.8125H212.695ZM217.447 72V69.5739V69.2259V61.8182H218.332V72H217.447ZM224.864 72.1392C224.148 72.1392 223.536 71.9337 223.029 71.5227C222.526 71.1084 222.138 70.5102 221.866 69.728C221.597 68.9458 221.463 68.0062 221.463 66.9091C221.463 65.8153 221.597 64.879 221.866 64.1001C222.138 63.3179 222.527 62.7197 223.034 62.3054C223.545 61.8878 224.155 61.679 224.864 61.679C225.573 61.679 226.181 61.8878 226.688 62.3054C227.199 62.7197 227.588 63.3179 227.857 64.1001C228.128 64.879 228.264 65.8153 228.264 66.9091C228.264 68.0062 228.128 68.9458 227.857 69.728C227.588 70.5102 227.2 71.1084 226.693 71.5227C226.19 71.9337 225.58 72.1392 224.864 72.1392ZM224.864 71.304C225.649 71.304 226.262 70.9212 226.703 70.1555C227.144 69.3866 227.365 68.3045 227.365 66.9091C227.365 65.9811 227.263 65.1889 227.061 64.5327C226.862 63.8731 226.576 63.3693 226.201 63.0213C225.83 62.6733 225.384 62.4993 224.864 62.4993C224.085 62.4993 223.473 62.8871 223.029 63.6626C222.585 64.4349 222.363 65.517 222.363 66.9091C222.363 67.8371 222.463 68.6293 222.661 69.2855C222.864 69.9418 223.15 70.4422 223.521 70.7869C223.896 71.1316 224.343 71.304 224.864 71.304ZM233.45 72.1392C232.734 72.1392 232.122 71.9337 231.615 71.5227C231.111 71.1084 230.724 70.5102 230.452 69.728C230.183 68.9458 230.049 68.0062 230.049 66.9091C230.049 65.8153 230.183 64.879 230.452 64.1001C230.724 63.3179 231.113 62.7197 231.62 62.3054C232.131 61.8878 232.74 61.679 233.45 61.679C234.159 61.679 234.767 61.8878 235.274 62.3054C235.785 62.7197 236.174 63.3179 236.443 64.1001C236.714 64.879 236.85 65.8153 236.85 66.9091C236.85 68.0062 236.714 68.9458 236.443 69.728C236.174 70.5102 235.786 71.1084 235.279 71.5227C234.776 71.9337 234.166 72.1392 233.45 72.1392ZM233.45 71.304C234.235 71.304 234.848 70.9212 235.289 70.1555C235.73 69.3866 235.95 68.3045 235.95 66.9091C235.95 65.9811 235.849 65.1889 235.647 64.5327C235.448 63.8731 235.162 63.3693 234.787 63.0213C234.416 62.6733 233.97 62.4993 233.45 62.4993C232.671 62.4993 232.059 62.8871 231.615 63.6626C231.171 64.4349 230.949 65.517 230.949 66.9091C230.949 67.8371 231.048 68.6293 231.247 69.2855C231.45 69.9418 231.736 70.4422 232.107 70.7869C232.482 71.1316 232.929 71.304 233.45 71.304Z" fill="black"/>
<path d="M182.89 115.812V115.057L187.429 107.818H187.986V109.086H187.573L183.929 114.913V114.977H189.88V115.812H182.89ZM187.643 118V115.574V115.226V107.818H188.528V118H187.643ZM195.059 118.139C194.343 118.139 193.732 117.934 193.225 117.523C192.721 117.108 192.333 116.51 192.061 115.728C191.793 114.946 191.659 114.006 191.659 112.909C191.659 111.815 191.793 110.879 192.061 110.1C192.333 109.318 192.722 108.72 193.23 108.305C193.74 107.888 194.35 107.679 195.059 107.679C195.768 107.679 196.377 107.888 196.884 108.305C197.394 108.72 197.784 109.318 198.052 110.1C198.324 110.879 198.46 111.815 198.46 112.909C198.46 114.006 198.324 114.946 198.052 115.728C197.784 116.51 197.396 117.108 196.889 117.523C196.385 117.934 195.775 118.139 195.059 118.139ZM195.059 117.304C195.845 117.304 196.458 116.921 196.899 116.156C197.339 115.387 197.56 114.304 197.56 112.909C197.56 111.981 197.459 111.189 197.257 110.533C197.058 109.873 196.771 109.369 196.396 109.021C196.025 108.673 195.579 108.499 195.059 108.499C194.28 108.499 193.669 108.887 193.225 109.663C192.78 110.435 192.558 111.517 192.558 112.909C192.558 113.837 192.658 114.629 192.857 115.286C193.059 115.942 193.346 116.442 193.717 116.787C194.091 117.132 194.539 117.304 195.059 117.304ZM203.625 107.818V118H202.695V108.793H202.636L200.249 110.379V109.414L202.656 107.818H203.625ZM210.874 112.491V113.327H206.638V112.491H210.874ZM216.039 118.139C215.472 118.139 214.965 118.025 214.518 117.796C214.074 117.564 213.719 117.246 213.454 116.842C213.192 116.437 213.053 115.975 213.036 115.455H213.936C213.966 115.995 214.178 116.439 214.573 116.787C214.967 117.132 215.456 117.304 216.039 117.304C216.493 117.304 216.898 117.196 217.252 116.981C217.607 116.762 217.884 116.464 218.083 116.086C218.285 115.705 218.386 115.276 218.386 114.798C218.383 114.301 218.275 113.864 218.063 113.486C217.851 113.105 217.562 112.806 217.198 112.591C216.836 112.375 216.43 112.268 215.98 112.268C215.638 112.264 215.303 112.321 214.975 112.437C214.647 112.553 214.374 112.702 214.155 112.884L213.225 112.765L213.837 107.818H218.868V108.653H214.617L214.21 112.059H214.259C214.485 111.87 214.758 111.716 215.08 111.597C215.405 111.477 215.748 111.418 216.109 111.418C216.709 111.418 217.247 111.562 217.725 111.85C218.205 112.138 218.585 112.536 218.863 113.043C219.145 113.547 219.286 114.127 219.286 114.783C219.286 115.426 219.145 116.001 218.863 116.509C218.585 117.012 218.2 117.41 217.71 117.702C217.222 117.993 216.666 118.139 216.039 118.139ZM224.563 118.139C223.847 118.139 223.236 117.934 222.729 117.523C222.225 117.108 221.837 116.51 221.565 115.728C221.297 114.946 221.162 114.006 221.162 112.909C221.162 111.815 221.297 110.879 221.565 110.1C221.837 109.318 222.226 108.72 222.733 108.305C223.244 107.888 223.854 107.679 224.563 107.679C225.272 107.679 225.881 107.888 226.388 108.305C226.898 108.72 227.287 109.318 227.556 110.1C227.828 110.879 227.964 111.815 227.964 112.909C227.964 114.006 227.828 114.946 227.556 115.728C227.287 116.51 226.9 117.108 226.393 117.523C225.889 117.934 225.279 118.139 224.563 118.139ZM224.563 117.304C225.349 117.304 225.962 116.921 226.403 116.156C226.843 115.387 227.064 114.304 227.064 112.909C227.064 111.981 226.963 111.189 226.76 110.533C226.562 109.873 226.275 109.369 225.9 109.021C225.529 108.673 225.083 108.499 224.563 108.499C223.784 108.499 223.173 108.887 222.729 109.663C222.284 110.435 222.062 111.517 222.062 112.909C222.062 113.837 222.162 114.629 222.361 115.286C222.563 115.942 222.849 116.442 223.221 116.787C223.595 117.132 224.043 117.304 224.563 117.304ZM233.149 118.139C232.433 118.139 231.822 117.934 231.314 117.523C230.811 117.108 230.423 116.51 230.151 115.728C229.883 114.946 229.748 114.006 229.748 112.909C229.748 111.815 229.883 110.879 230.151 110.1C230.423 109.318 230.812 108.72 231.319 108.305C231.83 107.888 232.44 107.679 233.149 107.679C233.858 107.679 234.466 107.888 234.974 108.305C235.484 108.72 235.873 109.318 236.142 110.1C236.414 110.879 236.55 111.815 236.55 112.909C236.55 114.006 236.414 114.946 236.142 115.728C235.873 116.51 235.486 117.108 234.979 117.523C234.475 117.934 233.865 118.139 233.149 118.139ZM233.149 117.304C233.934 117.304 234.548 116.921 234.988 116.156C235.429 115.387 235.65 114.304 235.65 112.909C235.65 111.981 235.549 111.189 235.346 110.533C235.148 109.873 234.861 109.369 234.486 109.021C234.115 108.673 233.669 108.499 233.149 108.499C232.37 108.499 231.759 108.887 231.314 109.663C230.87 110.435 230.648 111.517 230.648 112.909C230.648 113.837 230.748 114.629 230.947 115.286C231.149 115.942 231.435 116.442 231.807 116.787C232.181 117.132 232.629 117.304 233.149 117.304Z" fill="black"/>
<circle cx="146" cy="68" r="15" fill="#960018"/>
<circle cx="146" cy="112" r="10" fill="#3C0000"/>
</svg>
